<svg width="16" height="20" viewBox="0 0 16 20" fill="none" xmlns="http://www.w3.org/2000/svg">
<path d="M9 2C9 2.26522 9.10536 2.51957 9.29289 2.70711C9.48043 2.89464 9.73478 3 10 3C10.2652 3 10.5196 2.89464 10.7071 2.70711C10.8946 2.51957 11 2.26522 11 2C11 1.73478 10.8946 1.48043 10.7071 1.29289C10.5196 1.10536 10.2652 1 10 1C9.73478 1 9.48043 1.10536 9.29289 1.29289C9.10536 1.48043 9 1.73478 9 2ZM1 15L6 16L6.75 14.5M12 19V15L8 12L9 6" fill="white"/>
<path d="M1 15L6 16L6.75 14.5M12 19V15L8 12L9 6M9 2C9 2.26522 9.10536 2.51957 9.29289 2.70711C9.48043 2.89464 9.73478 3 10 3C10.2652 3 10.5196 2.89464 10.7071 2.70711C10.8946 2.51957 11 2.26522 11 2C11 1.73478 10.8946 1.48043 10.7071 1.29289C10.5196 1.10536 10.2652 1 10 1C9.73478 1 9.48043 1.10536 9.29289 1.29289C9.10536 1.48043 9 1.73478 9 2Z" stroke="white" stroke-width="2" stroke-linecap="round" stroke-linejoin="round"/>
<path d="M4 10V7L9 6L12 9L15 10" fill="white"/>
<path d="M4 10V7L9 6L12 9L15 10" stroke="white" stroke-width="2" stroke-linecap="round" stroke-linejoin="round"/>
</svg>
