<svg width="20" height="21" viewBox="0 0 20 21" fill="none" xmlns="http://www.w3.org/2000/svg">
<path d="M0 18.6V7.8C0 7.42 0.0851998 7.06 0.2556 6.72C0.426 6.38 0.6608 6.1 0.96 5.88L8.16 0.48C8.58 0.16 9.06 0 9.6 0C10.14 0 10.62 0.16 11.04 0.48L18.24 5.88C18.54 6.1 18.7752 6.38 18.9456 6.72C19.116 7.06 19.2008 7.42 19.2 7.8V18.6C19.2 19.26 18.9648 19.8252 18.4944 20.2956C18.024 20.766 17.4592 21.0008 16.8 21H13.2C12.86 21 12.5752 20.8848 12.3456 20.6544C12.116 20.424 12.0008 20.1392 12 19.8V13.8C12 13.46 11.8848 13.1752 11.6544 12.9456C11.424 12.716 11.1392 12.6008 10.8 12.6H8.4C8.06 12.6 7.7752 12.7152 7.5456 12.9456C7.316 13.176 7.2008 13.4608 7.2 13.8V19.8C7.2 20.14 7.0848 20.4252 6.8544 20.6556C6.624 20.886 6.3392 21.0008 6 21H2.4C1.74 21 1.1752 20.7652 0.7056 20.2956C0.236 19.826 0.0008 19.2608 0 18.6Z" fill="white"/>
</svg>
