<svg width="46" height="46" viewBox="0 0 46 46" fill="none" xmlns="http://www.w3.org/2000/svg">
<g clip-path="url(#clip0_243_131)">
<path d="M43.9795 26.6562L42.0658 25.0809C40.755 24.0018 40.7573 21.9961 42.0659 20.9191L43.9795 19.3438C45.3412 18.2226 45.6895 16.3002 44.8076 14.7724L41.029 8.22762C40.1469 6.69992 38.3074 6.04047 36.6559 6.65913L34.3348 7.52873C32.745 8.12421 31.0092 7.11985 30.7306 5.44786L30.3231 3.00285C30.0331 1.26293 28.5423 0 26.7783 0H19.2211C17.457 0 15.9662 1.26293 15.6763 3.00294L15.2687 5.44786C14.9896 7.12281 13.2515 8.12322 11.6646 7.52882L9.34344 6.65913C7.69184 6.04047 5.85256 6.70001 4.97039 8.22762L1.19183 14.7723C0.30983 16.2999 0.658065 18.2225 2.02001 19.3437L3.93359 20.919C5.24459 21.9982 5.24198 24.0037 3.93359 25.0808L2.01992 26.6561C0.658065 27.7774 0.30974 29.6999 1.19174 31.2275L4.97039 37.7723C5.85247 39.2999 7.69139 39.9594 9.34344 39.3408L11.6645 38.4712C13.2546 37.8754 14.99 38.8805 15.2686 40.5521L15.6762 42.9969C15.9662 44.7371 17.457 46 19.221 46H26.7782C28.5422 46 30.0331 44.7371 30.323 42.9971L30.7305 40.5522C31.0095 38.8777 32.7476 37.8766 34.3347 38.4714L36.6559 39.3409C38.3079 39.9596 40.1469 39.3001 41.029 37.7724L44.8077 31.2275C45.6895 29.6999 45.3412 27.7774 43.9795 26.6562ZM37.9167 35.9755L35.5956 35.1059C31.8851 33.7159 27.8358 36.0609 27.1858 39.9613L26.7783 42.4062H19.2211L18.8136 39.9613C18.1623 36.0534 14.107 33.7186 10.4038 35.1059L8.08266 35.9755L4.3041 29.4307L6.21769 27.8554C9.27678 25.3371 9.2704 20.6577 6.21769 18.1446L4.3041 16.5693L8.08275 10.0245L10.4038 10.8941C14.1143 12.284 18.1636 9.93905 18.8136 6.03867L19.221 3.59375H26.7782L27.1857 6.03867C27.8371 9.94705 31.8925 12.2811 35.5955 10.8941L37.9166 10.0245L41.6961 16.5684C41.6961 16.5684 41.6958 16.5686 41.6951 16.5692L39.7816 18.1445C36.7226 20.6626 36.7287 25.3421 39.7815 27.8553L41.6952 29.4307L37.9167 35.9755ZM22.9997 14.1354C18.1117 14.1354 14.1351 18.1121 14.1351 23C14.1351 27.8879 18.1117 31.8646 22.9997 31.8646C27.8876 31.8646 31.8643 27.8879 31.8643 23C31.8643 18.1121 27.8876 14.1354 22.9997 14.1354ZM22.9997 28.2709C20.0933 28.2709 17.7288 25.9064 17.7288 23C17.7288 20.0936 20.0933 17.7291 22.9997 17.7291C25.906 17.7291 28.2706 20.0936 28.2706 23C28.2706 25.9064 25.906 28.2709 22.9997 28.2709Z" fill="#7FD7FA"/>
</g>
<defs>
<clipPath id="clip0_243_131">
<rect width="46" height="46" fill="white"/>
</clipPath>
</defs>
</svg>
