<svg width="18" height="20" viewBox="0 0 18 20" fill="none" xmlns="http://www.w3.org/2000/svg">
<path d="M9.4325 0.173814C9.31614 0.0622732 9.16119 0 9 0C8.83881 0 8.68386 0.0622732 8.5675 0.173814C7.188 1.49531 5.225 2.21231 3.549 2.59381C2.719 2.78181 1.9795 2.88381 1.448 2.93881C1.17297 2.96703 0.897192 2.98737 0.621 2.99981H0.61C0.446853 3.00373 0.291709 3.0713 0.177723 3.18809C0.0637379 3.30488 -4.69805e-05 3.46162 2.59627e-08 3.62481V8.37481C2.59627e-08 10.7933 0.6215 13.2038 2.049 15.2623C3.4795 17.3253 5.694 18.9968 8.8135 19.9713C8.935 20.0093 9.065 20.0093 9.1865 19.9713C15.47 18.0078 18 13.2483 18 8.49981V3.62481C18 3.46162 17.9363 3.30488 17.8223 3.18809C17.7083 3.0713 17.5531 3.00373 17.39 2.99981H17.379L17.339 2.99831L17.175 2.98981C16.967 2.97729 16.7593 2.96029 16.552 2.93881C15.8455 2.86537 15.1439 2.75017 14.451 2.59381C12.7745 2.21231 10.8115 1.49531 9.4325 0.173814Z" fill="white"/>
</svg>
