<svg width="202" height="157" viewBox="0 0 202 157" fill="none" xmlns="http://www.w3.org/2000/svg">
<g clip-path="url(#clip0_247_2429)">
<rect x="0.727539" y="0.727264" width="200" height="155" rx="4" fill="#000E28"/>
<path d="M52.4599 118.386L46.6191 154.304L17.8848 149.631L23.7256 113.713L36.2532 104.69L27.23 92.1626L33.0708 56.2447L61.8051 60.9174L55.9643 96.8352L70.3315 99.1715L76.1723 63.2537L104.907 67.9263L99.0658 103.844L86.5382 112.867L95.5613 125.395L89.7206 161.313L60.9863 156.64L66.827 120.722L52.4599 118.386ZM140.262 95.7962L137.926 110.163L152.293 112.5L154.63 98.1326L140.262 95.7962ZM134.422 131.714L128.581 167.632L99.8465 162.959L115.033 69.5729L186.868 81.2544L177.523 138.723L134.422 131.714Z" fill="#FFD700"/>
<mask id="path-4-outside-1_247_2429" maskUnits="userSpaceOnUse" x="36.7775" y="-48.4055" width="172.508" height="121.263" fill="black">
<rect fill="white" x="36.7775" y="-48.4055" width="172.508" height="121.263"/>
<path d="M73.1308 15.3676L67.29 51.2855L38.5557 46.6129L44.3965 10.695L56.9241 1.67189L47.9009 -10.8557L53.7417 -46.7736L82.476 -42.101L76.6352 -6.18308L91.0024 -3.84678L96.8432 -39.7647L125.577 -35.092L119.737 0.825841L107.209 9.84897L116.232 22.3766L110.391 58.2944L81.6572 53.6218L87.4979 17.7039L73.1308 15.3676ZM160.933 -7.22206L158.597 7.14509L172.964 9.48139L175.3 -4.88576L160.933 -7.22206ZM155.092 28.6958L149.252 64.6137L120.517 59.9411L135.703 -33.4454L207.539 -21.7639L198.194 35.7047L155.092 28.6958Z"/>
</mask>
<path d="M73.1308 15.3676L73.2913 14.3806L72.3042 14.2201L72.1437 15.2071L73.1308 15.3676ZM67.29 51.2855L67.1295 52.2726L68.1165 52.4331L68.277 51.446L67.29 51.2855ZM38.5557 46.6129L37.5687 46.4524L37.4082 47.4394L38.3952 47.5999L38.5557 46.6129ZM44.3965 10.695L43.812 9.88359L43.4759 10.1257L43.4094 10.5345L44.3965 10.695ZM56.9241 1.67189L57.5085 2.48333L58.3199 1.89888L57.7355 1.08745L56.9241 1.67189ZM47.9009 -10.8557L46.9139 -11.0162L46.8474 -10.6074L47.0895 -10.2713L47.9009 -10.8557ZM53.7417 -46.7736L53.9022 -47.7606L52.9152 -47.9211L52.7547 -46.9341L53.7417 -46.7736ZM82.476 -42.101L83.463 -41.9405L83.6235 -42.9275L82.6365 -43.088L82.476 -42.101ZM76.6352 -6.18308L75.6482 -6.34359L75.4877 -5.35656L76.4747 -5.19605L76.6352 -6.18308ZM91.0024 -3.84678L90.8419 -2.85974L91.8289 -2.69924L91.9894 -3.68627L91.0024 -3.84678ZM96.8432 -39.7647L97.0037 -40.7517L96.0166 -40.9122L95.8561 -39.9252L96.8432 -39.7647ZM125.577 -35.092L126.564 -34.9315L126.725 -35.9186L125.738 -36.0791L125.577 -35.092ZM119.737 0.825841L120.321 1.63728L120.657 1.39519L120.724 0.986347L119.737 0.825841ZM107.209 9.84897L106.625 9.03754L105.813 9.62198L106.398 10.4334L107.209 9.84897ZM116.232 22.3766L117.219 22.5371L117.286 22.1282L117.044 21.7921L116.232 22.3766ZM110.391 58.2944L110.231 59.2815L111.218 59.442L111.378 58.4549L110.391 58.2944ZM81.6572 53.6218L80.6701 53.4613L80.5096 54.4484L81.4966 54.6089L81.6572 53.6218ZM87.4979 17.704L88.485 17.8645L88.6455 16.8774L87.6584 16.7169L87.4979 17.704ZM73.1308 15.3676L72.1437 15.2071L66.303 51.125L67.29 51.2855L68.277 51.446L74.1178 15.5282L73.1308 15.3676ZM67.29 51.2855L67.4505 50.2985L38.7162 45.6259L38.5557 46.6129L38.3952 47.5999L67.1295 52.2726L67.29 51.2855ZM38.5557 46.6129L39.5427 46.7734L45.3835 10.8555L44.3965 10.695L43.4094 10.5345L37.5687 46.4524L38.5557 46.6129ZM44.3965 10.695L44.9809 11.5065L57.5085 2.48333L56.9241 1.67189L56.3396 0.860456L43.812 9.88359L44.3965 10.695ZM56.9241 1.67189L57.7355 1.08745L48.7124 -11.4401L47.9009 -10.8557L47.0895 -10.2713L56.1126 2.25634L56.9241 1.67189ZM47.9009 -10.8557L48.888 -10.6952L54.7287 -46.6131L53.7417 -46.7736L52.7547 -46.9341L46.9139 -11.0162L47.9009 -10.8557ZM53.7417 -46.7736L53.5812 -45.7865L82.3155 -41.1139L82.476 -42.101L82.6365 -43.088L53.9022 -47.7606L53.7417 -46.7736ZM82.476 -42.101L81.489 -42.2615L75.6482 -6.34359L76.6352 -6.18308L77.6223 -6.02258L83.463 -41.9405L82.476 -42.101ZM76.6352 -6.18308L76.4747 -5.19605L90.8419 -2.85974L91.0024 -3.84678L91.1629 -4.83381L76.7957 -7.17012L76.6352 -6.18308ZM91.0024 -3.84678L91.9894 -3.68627L97.8302 -39.6041L96.8432 -39.7647L95.8561 -39.9252L90.0153 -4.00728L91.0024 -3.84678ZM96.8432 -39.7647L96.6826 -38.7776L125.417 -34.105L125.577 -35.092L125.738 -36.0791L97.0037 -40.7517L96.8432 -39.7647ZM125.577 -35.092L124.59 -35.2525L118.75 0.665335L119.737 0.825841L120.724 0.986347L126.564 -34.9315L125.577 -35.092ZM119.737 0.825841L119.152 0.0144059L106.625 9.03754L107.209 9.84897L107.794 10.6604L120.321 1.63728L119.737 0.825841ZM107.209 9.84897L106.398 10.4334L115.421 22.961L116.232 22.3766L117.044 21.7921L108.021 9.26452L107.209 9.84897ZM116.232 22.3766L115.245 22.2161L109.404 58.1339L110.391 58.2944L111.378 58.4549L117.219 22.5371L116.232 22.3766ZM110.391 58.2944L110.552 57.3074L81.8177 52.6348L81.6572 53.6218L81.4966 54.6089L110.231 59.2815L110.391 58.2944ZM81.6572 53.6218L82.6442 53.7823L88.485 17.8645L87.4979 17.704L86.5109 17.5434L80.6701 53.4613L81.6572 53.6218ZM87.4979 17.704L87.6584 16.7169L73.2913 14.3806L73.1308 15.3676L72.9703 16.3547L87.3374 18.691L87.4979 17.704ZM160.933 -7.22206L161.094 -8.2091L160.107 -8.3696L159.946 -7.38257L160.933 -7.22206ZM158.597 7.14509L157.61 6.98458L157.449 7.97162L158.436 8.13212L158.597 7.14509ZM172.964 9.48139L172.804 10.4684L173.791 10.6289L173.951 9.6419L172.964 9.48139ZM175.3 -4.88576L176.287 -4.72525L176.448 -5.71228L175.461 -5.87279L175.3 -4.88576ZM155.092 28.6958L155.253 27.7088L154.266 27.5483L154.105 28.5353L155.092 28.6958ZM149.252 64.6137L149.091 65.6007L150.078 65.7612L150.239 64.7742L149.252 64.6137ZM120.517 59.9411L119.53 59.7806L119.37 60.7676L120.357 60.9281L120.517 59.9411ZM135.703 -33.4454L135.864 -34.4324L134.877 -34.5929L134.716 -33.6059L135.703 -33.4454ZM207.539 -21.7639L208.526 -21.6034L208.687 -22.5904L207.7 -22.7509L207.539 -21.7639ZM198.194 35.7047L198.033 36.6918L199.02 36.8523L199.181 35.8652L198.194 35.7047ZM160.933 -7.22206L159.946 -7.38257L157.61 6.98458L158.597 7.14509L159.584 7.30559L161.92 -7.06156L160.933 -7.22206ZM158.597 7.14509L158.436 8.13212L172.804 10.4684L172.964 9.48139L173.125 8.49436L158.757 6.15805L158.597 7.14509ZM172.964 9.48139L173.951 9.6419L176.287 -4.72525L175.3 -4.88576L174.313 -5.04626L171.977 9.32089L172.964 9.48139ZM175.3 -4.88576L175.461 -5.87279L161.094 -8.2091L160.933 -7.22206L160.773 -6.23503L175.14 -3.89872L175.3 -4.88576ZM155.092 28.6958L154.105 28.5353L148.265 64.4532L149.252 64.6137L150.239 64.7742L156.08 28.8563L155.092 28.6958ZM149.252 64.6137L149.412 63.6267L120.678 58.954L120.517 59.9411L120.357 60.9281L149.091 65.6007L149.252 64.6137ZM120.517 59.9411L121.504 60.1016L136.69 -33.2849L135.703 -33.4454L134.716 -33.6059L119.53 59.7806L120.517 59.9411ZM135.703 -33.4454L135.543 -32.4584L207.379 -20.7768L207.539 -21.7639L207.7 -22.7509L135.864 -34.4324L135.703 -33.4454ZM207.539 -21.7639L206.552 -21.9244L197.207 35.5442L198.194 35.7047L199.181 35.8652L208.526 -21.6034L207.539 -21.7639ZM198.194 35.7047L198.354 34.7177L155.253 27.7088L155.092 28.6958L154.932 29.6829L198.033 36.6918L198.194 35.7047Z" fill="#FFD700" mask="url(#path-4-outside-1_247_2429)"/>
</g>
<rect x="0.363903" y="0.363628" width="200.727" height="155.727" rx="4.36364" stroke="url(#paint0_linear_247_2429)" stroke-width="0.727273"/>
<defs>
<linearGradient id="paint0_linear_247_2429" x1="100.728" y1="0.727264" x2="100.728" y2="155.727" gradientUnits="userSpaceOnUse">
<stop stop-color="#00B7FF"/>
<stop offset="1" stop-color="#01174D" stop-opacity="0"/>
</linearGradient>
<clipPath id="clip0_247_2429">
<rect x="0.727539" y="0.727264" width="200" height="155" rx="4" fill="white"/>
</clipPath>
</defs>
</svg>
